<svg width="547" height="184" fill="none" xmlns="http://www.w3.org/2000/svg"><g clip-path="url(#a)"><g filter="url(#b)"><path d="M25.125 76h-16.5V8.75H34L49.375 57l15.25-48.25H90V76H73.5V22.75L55.375 76H43.25L25.125 22.75V76Zm82.008 21.875h-7.25v-13.25h6.5c5.75 0 8.25.125 11.25-7l.75-1.875-25.75-67h18.875l15.25 48.5 15.625-48.5h17.5L135.258 74c-8 20.875-11.375 23.875-28.125 23.875Zm87.749-33.5c9 0 15.375-8.75 15.375-21.875s-6.375-22-15.375-22c-9.5 0-15.75 8.375-15.75 21.875 0 13.875 6.25 22 15.75 22Zm-15.125 33.5h-17.25V8.75h17.25v8.625C183.382 11 190.632 7.25 199.132 7.25c16.25 0 29.25 14 29.25 35.125 0 21.5-13.375 35.25-29.375 35.25-7 0-14.875-2.625-19.25-10.125v30.375ZM250.138 76h-17.25V8.75h16.875v45.875L279.388 8.75h17.25V76h-16.875V31.75L250.138 76Zm68.554 0h-17.25V8.75h17.25v26h28v-26h17.25V76h-17.25V48.375h-28V76Zm83.337-55.25c-9.5 0-16.25 7.625-16.25 21.75s6.75 21.625 16.25 21.625 16.25-7.5 16.25-21.625-6.75-21.75-16.25-21.75Zm0 56.875c-17 0-33.75-11.625-33.75-35.125 0-23.625 16.75-35.25 33.75-35.25s33.75 11.625 33.75 35.25c0 23.5-16.75 35.125-33.75 35.125Z" fill="#fff"/></g><g filter="url(#c)"><path d="M242.75 132.25v-5c-19.375 2-27 4.25-27 11.75 0 4.875 3.75 8.875 11.625 8.875 10.875 0 15.375-5.75 15.375-15.625Zm1.5 17.375c-4.875 7-11.875 10-22 10-12.875 0-24.25-7.5-24.25-19.75 0-15.875 17.75-20.625 44.25-23.625v-1.125c0-10.375-5.625-14-12.625-14-6.625 0-12.125 3.375-12.5 10.875H201c1.375-13.25 12.125-23 29.5-23 15.875 0 29 7 29 29.625 0 2-.25 11.125-.25 17.125 0 10.625.625 16.625 2 22.25h-15.875c-.5-2.125-.75-5-1.125-8.375Zm56.62-3.25c9 0 15.375-8.75 15.375-21.875s-6.375-22-15.375-22c-9.5 0-15.75 8.375-15.75 21.875 0 13.875 6.25 22 15.75 22Zm-15.125 33.5h-17.25V90.75h17.25v8.625C289.37 93 296.62 89.25 305.12 89.25c16.25 0 29.25 14 29.25 35.125 0 21.5-13.375 35.25-29.375 35.25-7 0-14.875-2.625-19.25-10.125v30.375Zm116.858-50.75h-49.625c1 11.5 8.75 17.125 17 17.125 5.375 0 10.625-1.875 14.125-7.75h17.75c-3.625 10-13.375 21.125-31.75 21.125-21.625 0-34.25-16.125-34.25-35.5 0-20 13.875-34.875 33.75-34.875 20.75 0 33.625 16.125 33 39.875Zm-33.125-27.25c-6.5 0-14.875 4-16.25 15.375h31.875c-.375-11.375-8.375-15.375-15.625-15.375ZM425.589 158h-17.25V90.75h17.25v26h28v-26h17.25V158h-17.25v-27.625h-28V158Zm97.337-25.75v-5c-19.375 2-27 4.25-27 11.75 0 4.875 3.75 8.875 11.625 8.875 10.875 0 15.375-5.75 15.375-15.625Zm1.5 17.375c-4.875 7-11.875 10-22 10-12.875 0-24.25-7.5-24.25-19.75 0-15.875 17.75-20.625 44.25-23.625v-1.125c0-10.375-5.625-14-12.625-14-6.625 0-12.125 3.375-12.5 10.875h-16.125c1.375-13.25 12.125-23 29.5-23 15.875 0 29 7 29 29.625 0 2-.25 11.125-.25 17.125 0 10.625.625 16.625 2 22.25h-15.875c-.5-2.125-.75-5-1.125-8.375Z" fill="#fff"/></g></g><defs><filter id="b" x="4.625" y="3.25" width="435.154" height="98.625" filterUnits="userSpaceOnUse" color-interpolation-filters="sRGB"><feFlood flood-opacity="0" result="BackgroundImageFix"/><feColorMatrix in="SourceAlpha" values="0 0 0 0 0 0 0 0 0 0 0 0 0 0 0 0 0 0 127 0" result="hardAlpha"/><feOffset/><feGaussianBlur stdDeviation="2"/><feComposite in2="hardAlpha" operator="out"/><feColorMatrix values="0 0 0 0 0 0 0 0 0 0 0 0 0 0 0 0 0 0 0.25 0"/><feBlend in2="BackgroundImageFix" result="effect1_dropShadow_3320_179"/><feBlend in="SourceGraphic" in2="effect1_dropShadow_3320_179" result="shape"/></filter><filter id="c" x="194" y="85" width="351.426" height="98.875" filterUnits="userSpaceOnUse" color-interpolation-filters="sRGB"><feFlood flood-opacity="0" result="BackgroundImageFix"/><feColorMatrix in="SourceAlpha" values="0 0 0 0 0 0 0 0 0 0 0 0 0 0 0 0 0 0 127 0" result="hardAlpha"/><feOffset/><feGaussianBlur stdDeviation="2"/><feComposite in2="hardAlpha" operator="out"/><feColorMatrix values="0 0 0 0 0 0 0 0 0 0 0 0 0 0 0 0 0 0 0.25 0"/><feBlend in2="BackgroundImageFix" result="effect1_dropShadow_3320_179"/><feBlend in="SourceGraphic" in2="effect1_dropShadow_3320_179" result="shape"/></filter><clipPath id="a"><path fill="#fff" d="M0 0h547v184H0z"/></clipPath></defs></svg>